<?xml version="1.0" encoding="UTF-8" standalone="no"?>
<svg width="182px" height="215px" viewBox="0 0 182 215" version="1.1" xmlns="http://www.w3.org/2000/svg" xmlns:xlink="http://www.w3.org/1999/xlink">
    <defs></defs>
    <g id="Page-1" stroke="none" stroke-width="1" fill="none" fill-rule="evenodd">
        <g id="logo">
            <circle id="Oval-4-Copy-3" stroke="#FFF2F2" stroke-width="6" cx="90" cy="93" r="81"></circle>
            <polygon id="Triangle-1-Copy-3" fill="#FFFFFF" points="91.5 84.75 152.25 206.25 30.75 206.25 "></polygon>
            <text id="jus" font-family="Roboto Slab" font-size="44" font-weight="normal" fill="#D65252">
                <tspan x="62.7880859" y="183">jus</tspan>
            </text>
            <text id="/zhoo/-copy-4" font-family="Archer" font-size="13" font-style="italic" font-weight="313" fill="#B7B7B7">
                <tspan x="74.9435" y="203">/zhoo/</tspan>
            </text>
            <g id="Group-Copy-5" transform="translate(93.278304, 85.721422) rotate(5.000000) translate(-93.278304, -85.721422) translate(38.903510, 38.559611)">
                <g id="Group">
                    <path d="M36.3665418,4.17296795 C40.7573064,2.90812227 45.153735,1.65691374 49.5558277,0.42957023 C49.4572734,0.787545421 49.240907,1.09551773 49.0857123,1.43076434 C38.7057907,21.1546292 28.3304004,40.8819033 17.9516116,60.6057681 C17.7986825,60.8478275 17.6752064,61.1035241 17.6344253,61.3899042 C14.6336164,62.204724 11.6611276,63.1081852 8.65918591,63.9150499 C8.38844475,64.0491485 8.11543797,64.1821107 7.80391572,64.1707465 C6.94751271,64.4548537 6.0616567,64.6366824 5.20298808,64.9128347 C4.97189521,65.0423876 4.70228685,65.0367055 4.4462722,65.0151133 C4.44400658,64.8787418 4.47685802,64.7525982 4.54822494,64.6366824 C15.161505,44.4866566 25.7555273,24.3241301 36.3665418,4.17296795 L36.3665418,4.17296795 Z" id="Shape" fill="#D65252"></path>
                    <path d="M50.699964,0.557986727 C50.7724637,0.565941731 50.9185959,0.578442452 50.9922285,0.584124598 C68.4272795,18.0692239 85.8510025,35.5634147 103.289452,53.0451048 C103.389139,53.5701351 102.931485,53.9587938 102.727579,54.3951827 C102.484025,54.9406687 102.174769,55.4622897 101.756763,55.8929963 C98.1329091,62.0547153 93.4578096,67.6527655 87.7337298,71.9530135 C83.6850732,75.010008 79.1311843,77.4112828 74.295226,78.9352343 C74.0380786,79.0363765 73.8194466,79.2170688 73.5543695,79.2920731 C73.273433,79.3863967 72.9415202,79.3613953 72.7398804,79.6114097 C72.299218,79.5977726 71.8880086,79.7273255 71.4564087,79.7841469 C71.4745336,80.0580264 71.1992612,80.0534807 71.0361368,79.9216549 C70.8741453,79.9887042 70.7064896,79.9818856 70.5410997,79.9546113 C63.4769077,81.5103829 56.0060376,81.2921885 48.9848923,79.4954939 C39.4828971,77.1203569 30.795391,72.0871121 23.389091,65.7367459 C21.7793705,64.346893 20.2138296,62.9047643 18.7117259,61.3989957 C19.2407473,60.2534751 19.8887136,59.1602302 20.4539849,58.0306196 C30.5405092,38.8761058 40.6089085,19.7113641 50.699964,0.557986727 L50.699964,0.557986727 Z M52.5623007,10.8597172 C52.3731217,11.0938216 52.3176141,11.4006575 52.2303878,11.6813555 C51.8996079,12.9405191 51.6843743,14.2451398 51.7353507,15.5508969 C51.7376163,15.96683 52.1930052,16.1213843 52.5339804,16.1713872 C53.103783,16.2088894 53.6928432,16.0509257 54.1561618,15.7088605 C54.4212389,15.5179404 54.5662384,15.1701931 54.4801449,14.8497201 C54.2241303,13.6144216 53.7676086,12.4188981 53.1706187,11.3108796 C53.0346817,11.1097317 52.8636276,10.7199364 52.5623007,10.8597172 L52.5623007,10.8597172 Z M58.3792708,18.1828669 C58.0700141,18.7158521 58.0043113,19.3454339 57.8615774,19.9375135 C57.687125,20.860294 57.5432583,21.8023938 57.5761098,22.74563 C57.5647817,23.0979231 57.8864992,23.3502103 58.2116152,23.3922582 C58.9207531,23.4865818 59.7239141,23.3274818 60.2144201,22.7717679 C60.4908253,22.3887913 60.3005135,21.8989903 60.2053576,21.4876029 C59.8813745,20.4000402 59.4973525,19.311341 58.8890345,18.3487855 C58.8018082,18.1658204 58.5503248,17.9771732 58.3792708,18.1828669 L58.3792708,18.1828669 Z M47.0670481,26.8242743 C46.7532602,28.04139 46.565214,29.3028264 46.5708781,30.5619899 C46.583339,31.2256646 47.4193514,31.3268067 47.9245839,31.2358924 C48.5306363,31.1279316 49.3949689,30.8120043 49.353055,30.0619611 C49.1559464,28.8607554 48.6880966,27.7163712 48.1579424,26.6276721 C47.9721618,26.3628841 47.8520841,25.9037667 47.4657965,25.9083124 C47.2313052,26.1594633 47.1542743,26.5038013 47.0670481,26.8242743 L47.0670481,26.8242743 Z M65.5204937,32.0484393 C65.4865094,32.0791229 65.418541,32.1438993 65.3856895,32.1745829 C64.8804571,33.3860164 64.7433873,34.7110928 64.6142471,36.0066221 C64.6323721,36.4191459 64.4862398,36.9634955 64.9008476,37.2316928 C65.4411971,37.5271643 66.1050227,37.3828378 66.6499035,37.1657799 C67.054316,36.9998612 67.4927128,36.6248396 67.3816976,36.1339022 C67.2174404,35.1861202 66.8741995,34.2803862 66.49924,33.3996536 C66.2647487,32.9382633 66.0823666,32.4291431 65.7096727,32.0586671 C65.6632275,32.0563943 65.5680716,32.0507121 65.5204937,32.0484393 L65.5204937,32.0484393 Z M53.5399141,32.6768846 C53.1547593,33.1450934 53.1026502,33.7939945 52.9553851,34.3656184 C52.7673389,35.3565846 52.6019489,36.3657337 52.631402,37.3760193 C52.6200739,37.7783152 53.0324161,38.013556 53.386985,38.029466 C54.0530762,38.0896968 54.7961984,37.9067317 55.2572514,37.3942021 C55.5177973,37.0930484 55.3897899,36.6691603 55.3138918,36.3225494 C55.0261585,35.2418053 54.6387381,34.1781076 54.0904589,33.2007785 C53.9409282,33.0030398 53.829913,32.6768846 53.5399141,32.6768846 L53.5399141,32.6768846 Z M75.0598716,35.6588748 C74.8831535,35.8577499 74.8333099,36.1327657 74.7528806,36.3793709 C74.4028428,37.669218 74.1785468,39.0079316 74.230656,40.3477816 C74.2317888,40.7637147 74.6860449,40.9171326 75.0270201,40.9671355 C75.677252,41.0080469 76.392054,40.8125811 76.8417789,40.3159616 C77.1385746,39.9352578 76.9210755,39.4454568 76.8361148,39.0317966 C76.5257254,37.9669624 76.1405706,36.9123562 75.5707681,35.9566192 C75.4642841,35.7929734 75.2807692,35.5247761 75.0598716,35.6588748 L75.0598716,35.6588748 Z M45.0098684,38.7317793 C44.7799083,39.0192959 44.7119398,39.3954539 44.6133855,39.7409284 C44.374363,40.7534868 44.190848,41.7865009 44.1579966,42.8286065 C44.1591294,43.2093102 44.0707704,43.7502505 44.5182296,43.9229878 C45.2500237,44.1843665 46.1585359,44.0014014 46.7181431,43.4513697 C46.9820874,43.2149924 46.9447048,42.8263336 46.8824003,42.5138156 C46.6093935,41.3944328 46.1981842,40.3080066 45.6634987,39.2886296 C45.513968,39.0636166 45.3440468,38.6067721 45.0098684,38.7317793 L45.0098684,38.7317793 Z M61.0957448,40.3773287 C60.6981292,41.1012341 60.6052389,41.9433281 60.4579738,42.7445107 C60.3571539,43.5093275 60.2166857,44.2832358 60.2880526,45.0582805 C60.2948494,45.3594343 60.5882468,45.5514908 60.8533239,45.6151308 C61.5364072,45.7287737 62.2953887,45.5753558 62.8164805,45.1014648 C63.0781592,44.8878161 63.0883545,44.5173402 63.0181204,44.2139136 C62.7790978,43.1354423 62.382615,42.0944732 61.8966402,41.1057798 C61.7006644,40.8341733 61.5216807,40.1500429 61.0957448,40.3773287 L61.0957448,40.3773287 Z M69.4728615,43.799117 C69.2474327,44.047995 69.1828626,44.3968787 69.0899723,44.7105332 C68.8090359,45.8424167 68.6187241,47.0027108 68.5858727,48.1698236 C68.5530213,48.5209802 68.7036847,48.9425955 69.0763786,49.0403284 C69.7436027,49.2369306 70.4889905,49.0426012 71.0463321,48.6482603 C71.4507446,48.3732444 71.4088307,47.8379863 71.2966827,47.4231896 C70.9738324,46.2628954 70.562623,45.1139655 69.9452425,44.0752693 C69.847821,43.9263971 69.6722358,43.6820648 69.4728615,43.799117 L69.4728615,43.799117 Z M79.8833689,46.9492987 C79.7191117,47.1868124 79.6511432,47.4766018 79.5627842,47.7493448 C79.2727853,48.8573633 79.1073953,49.9972017 79.0518877,51.1415859 C79.0598173,51.4279661 79.008841,51.7757134 79.2399338,51.9927714 C79.4653627,52.2052836 79.7927443,52.2246029 80.0850088,52.2382401 C80.7080533,52.2064201 81.4035975,52.0098178 81.7683618,51.4643318 C81.9269549,50.9358922 81.7015261,50.3926791 81.5667219,49.8846952 C81.2484028,48.9403226 80.9040291,47.9879949 80.3636796,47.1436281 C80.2741877,46.9856644 80.0555558,46.7606514 79.8833689,46.9492987 L79.8833689,46.9492987 Z M36.6089627,48.6596246 C36.3223622,49.0721484 36.2430657,49.5869508 36.1241208,50.0653875 C35.9190825,51.1472681 35.7015833,52.2439222 35.7650206,53.3519407 C35.7593566,53.6042279 35.9700589,53.7837838 36.1739644,53.8917445 C36.7426341,54.0883468 37.3645458,53.9462931 37.8958328,53.7065066 C38.2979797,53.5269508 38.6616112,53.0996534 38.5245414,52.6337174 C38.3138391,51.6495698 37.9660669,50.6983785 37.552592,49.7824166 C37.3441552,49.3846664 37.1810309,48.9164576 36.8117354,48.6437146 C36.7596262,48.6459874 36.6599391,48.6550789 36.6089627,48.6596246 L36.6089627,48.6596246 Z M48.4592693,48.8107697 C48.2157156,49.0005533 48.1352862,49.3187535 48.0423959,49.6005879 C47.7433346,50.7927022 47.5360307,52.0155 47.5122417,53.2462528 C47.5201713,53.5201322 47.5111089,53.8769709 47.7965765,54.0235703 C48.21345,54.2474469 48.7198152,54.1917618 49.1650088,54.1019839 C49.6215306,53.9747039 50.1426223,53.7258259 50.286489,53.2326156 C50.3306685,52.8394111 50.1981299,52.4575709 50.0950444,52.087095 C49.7982486,51.1199938 49.4448125,50.161984 48.9384472,49.2835242 C48.8104399,49.1005591 48.7050887,48.8448625 48.4592693,48.8107697 L48.4592693,48.8107697 Z M57.3846652,49.9176517 C57.1093928,50.2960826 57.0448227,50.78702 56.9236122,51.2313638 C56.6755272,52.335973 56.5033404,53.4712657 56.5565824,54.6054221 C56.5565824,54.814525 56.6970506,55.0099908 56.889628,55.0884045 C57.5421255,55.3872853 58.3237632,55.1963652 58.903761,54.8167979 C59.2084864,54.6315599 59.3976654,54.2576747 59.3002438,53.9031088 C59.0430964,52.6678103 58.5865747,51.4745597 57.9907176,50.3654048 C57.8547806,50.1676661 57.6825937,49.7733252 57.3846652,49.9176517 L57.3846652,49.9176517 Z M89.0239983,52.8928233 C88.7045464,53.3644414 88.6377107,53.9599303 88.4983753,54.5031434 C88.2899386,55.5145654 88.1460719,56.5475795 88.1947827,57.5828665 C88.1970483,57.9976632 88.6524372,58.1533539 88.9934125,58.2033568 C89.563215,58.2397226 90.1545409,58.0828953 90.6155938,57.7408302 C90.8829366,57.5499101 91.0256704,57.2021627 90.9384442,56.8816897 C90.6858279,55.6452547 90.224775,54.4520041 89.6289179,53.3428492 C89.4941137,53.1417013 89.3241925,52.7507696 89.0239983,52.8928233 L89.0239983,52.8928233 Z M66.7609187,53.9940232 C66.6091224,54.1178939 66.5592788,54.3179055 66.4913103,54.4917791 C66.1084212,55.6952576 65.9486952,56.9498754 65.8580705,58.2044933 C65.8501409,58.465872 65.8399456,58.74657 65.9543592,58.9909023 C66.2534206,59.3545596 66.7847076,59.3852432 67.2174404,59.3147846 C67.6739621,59.2250067 68.1633352,59.0738616 68.4771231,58.7113407 C68.7342706,58.4056412 68.6323178,57.9772074 68.5507556,57.6249144 C68.2596239,56.5475795 67.8835316,55.4816089 67.3352524,54.5076891 C67.1868546,54.3110869 67.0656441,53.9292467 66.7609187,53.9940232 L66.7609187,53.9940232 Z M41.3180464,58.2351768 C41.0642974,58.6238356 40.9816024,59.0931809 40.8649231,59.5375247 C40.6247678,60.6841817 40.4072686,61.8581131 40.5012917,63.0343173 C40.5556665,63.3934289 40.9668759,63.5161632 41.2749997,63.5582111 C41.92863,63.584349 42.6638226,63.4161575 43.110149,62.9024915 C43.3865542,62.5456527 43.1860471,62.0808532 43.1146802,61.6899216 C42.8269469,60.647816 42.4361281,59.6261662 41.9082395,58.6817935 C41.7745681,58.4749634 41.6239046,58.1260796 41.3180464,58.2351768 L41.3180464,58.2351768 Z M51.7987879,58.9488544 C51.5824216,59.1488659 51.5042578,59.4432011 51.42043,59.7136712 C51.1270327,60.8023704 50.9525802,61.9217531 50.876682,63.0456816 C50.876682,63.3820646 50.812112,63.7661777 51.0194159,64.05824 C51.3547271,64.3616666 51.8486315,64.3605301 52.2711689,64.2946172 C52.7831983,64.1991572 53.3450711,63.9945999 53.6090154,63.5093447 C53.7290931,63.1934174 53.6067498,62.853625 53.5365157,62.541107 C53.2340559,61.4614993 52.8579636,60.3932559 52.2960907,59.4181996 C52.1726146,59.2306888 52.0423417,58.9886294 51.7987879,58.9488544 L51.7987879,58.9488544 Z M30.0851203,59.7398091 C29.7962542,60.2216551 29.7022311,60.7910061 29.5719582,61.3319464 C29.3805136,62.4138269 29.1573504,63.520709 29.3125451,64.6230453 C29.4892632,64.9753383 29.9219959,65.0412512 30.2765649,65.0389783 C30.8520314,65.0105676 31.4739431,64.8435125 31.8658948,64.3912137 C32.1581593,64.0798321 31.9995661,63.6184419 31.9225352,63.2525117 C31.6302707,62.1763132 31.2360534,61.1182977 30.688907,60.1455143 C30.5495716,59.9489121 30.3841816,59.548889 30.0851203,59.7398091 L30.0851203,59.7398091 Z M77.8896265,60.6864546 C77.6347446,61.0410205 77.5577137,61.4830914 77.4455657,61.8956152 C77.1748245,63.0650009 76.9629894,64.2673429 77.0502156,65.4719579 C77.1397074,65.9401667 77.7027131,66.0424453 78.1025944,66.0163074 C78.6633345,65.9401667 79.2965743,65.8231145 79.6636041,65.3435414 C79.8833689,65.0730712 79.7961427,64.6969132 79.7327054,64.3855316 C79.4313784,63.2434202 79.0224347,62.1229011 78.4390384,61.0944327 C78.3166952,60.9103311 78.1648989,60.5978131 77.8896265,60.6864546 L77.8896265,60.6864546 Z M59.2379394,66.7788514 C59.0476276,67.010683 58.99212,67.3197917 58.903761,67.6004897 C58.572981,68.8596532 58.3577474,70.1642739 58.4098566,71.4700311 C58.4053254,71.8427798 58.7927458,72.0098349 59.1008696,72.0723385 C59.7057892,72.1598436 60.339029,71.9882428 60.8295349,71.6268583 C61.0934792,71.4348018 61.2384787,71.0881909 61.1523853,70.765445 C60.8975034,69.5312829 60.4387161,68.3368958 59.8405934,67.2288774 C59.7091876,67.0288658 59.5370008,66.6356613 59.2379394,66.7788514 L59.2379394,66.7788514 Z M69.9905549,67.275471 C69.6722358,67.7482255 69.6042673,68.3414415 69.4649319,68.8857911 C69.257628,69.8972131 69.1114957,70.9302272 69.1613393,71.9643778 C69.1556752,72.338263 69.5430956,72.505318 69.8534851,72.5678217 C70.456139,72.6564631 71.0905116,72.4837259 71.5821504,72.1223414 C71.8472275,71.9291485 71.9910942,71.583674 71.9050007,71.2609281 C71.6591813,70.0540403 71.2083237,68.8914733 70.639654,67.8016377 C70.4912561,67.5845797 70.3247333,67.1334173 69.9905549,67.275471 L69.9905549,67.275471 Z M47.1259541,69.1358055 C46.8506817,69.5153729 46.7951741,70.0085831 46.6671668,70.4517905 C46.4168161,71.5552633 46.2468949,72.6894196 46.2978713,73.8247123 C46.2933401,74.1985975 46.6807605,74.3656526 46.9900171,74.4270198 C47.5926711,74.5167977 48.2270437,74.3440605 48.7175496,73.9815396 C48.9848923,73.7906195 49.1276262,73.4440086 49.0415328,73.1223991 C48.7877837,71.8859641 48.3278636,70.6938499 47.7308737,69.5846951 C47.5972023,69.3846835 47.4250154,68.9937519 47.1259541,69.1358055 L47.1259541,69.1358055 Z" id="Shape" fill="#F66F6F"></path>
                    <path d="M104.703197,54.5065527 C104.777962,54.5088256 104.92636,54.5145077 105.002258,54.5167806 C106.223425,55.7361691 107.437796,56.9657855 108.661229,58.1840375 C108.865134,58.3522291 108.663494,58.6033799 108.586463,58.7817993 C106.490768,62.7683928 104.001988,66.5640663 101.134851,70.026766 C100.958133,70.3756498 100.605829,70.5756613 100.393994,70.8972708 C100.131183,71.3632067 99.6282159,71.6302676 99.3823965,72.1087043 C98.3470098,73.1769477 97.2821701,74.2179168 96.2365881,75.2770688 C95.8117851,75.6793647 95.4447552,76.14871 94.9417884,76.453273 C94.3425328,77.1055834 93.5982778,77.5851565 92.9616396,78.1897368 C90.8025072,79.8625606 88.5833359,81.4796993 86.1851809,82.7956843 C85.6142456,83.2025259 84.926631,83.4036739 84.3556957,83.8127884 C83.8300727,84.1514443 83.2115594,84.2889522 82.6780067,84.6071524 C81.0207083,85.3992435 79.2897774,86.0390531 77.5645105,86.6618163 C76.8327164,86.7913693 76.1711564,87.2027566 75.4189718,87.2345766 C75.4144405,87.5618682 75.0949886,87.4414067 74.903544,87.357311 C74.9182706,87.7539248 74.4130381,87.4925461 74.1717499,87.5857333 C73.5940178,87.7948362 72.9992935,87.8027912 72.4034363,87.9402992 C66.7325985,89.1574148 60.8589879,89.3858371 55.1133847,88.6096559 C49.6532492,87.9118884 44.3222538,86.3356612 39.2812573,84.1332614 C30.6617196,80.3216779 22.8963194,74.7202185 16.1968917,68.1084736 C15.9759941,67.8743691 15.657675,67.6857219 15.5375973,67.3811589 C16.2852507,65.9310752 17.0498963,64.4878102 17.8179402,63.0490909 C17.8655182,63.0513637 17.9584085,63.054773 18.0059864,63.0559094 C24.776781,69.801753 32.6826495,75.5236739 41.5593346,79.125018 C46.4417379,81.1137691 51.6039449,82.4240719 56.8545109,82.89569 C58.2897789,83.0536537 59.7352422,82.9991051 61.1750414,83.017288 C61.8694529,83.0013779 62.5672627,83.0388801 63.2582757,82.9922865 C63.9096404,82.760455 64.6289736,83.0343344 65.2792055,82.7865928 C65.6552979,82.7343171 66.056312,82.8388686 66.4188106,82.6877235 C66.7224032,82.5888542 67.0475192,82.7047699 67.3590414,82.6627221 C71.9276569,82.053596 76.4045149,80.7489753 80.5743819,78.7749978 C87.4686526,75.5464025 93.4442159,70.5313406 98.1793542,64.5866795 C100.664735,61.4433164 102.871446,58.0726675 104.703197,54.5065527 L104.703197,54.5065527 Z" id="Shape" fill="#A5D56E"></path>
                    <path d="M16.6907961,63.1661431 L16.7134522,63.2775131 C16.1040014,64.4207609 15.5047459,65.5719636 14.8986935,66.7174842 C14.7231082,67.0811416 14.4693592,67.4141153 14.4025235,67.8243663 C13.9969782,67.8516406 13.6322139,68.04597 13.2368639,68.1209743 C9.76820514,69.1017127 6.29954642,70.0869968 2.8308877,71.0722809 C2.26674922,71.2109252 1.72186847,71.4620761 1.1316754,71.4677582 C1.93143799,69.9619895 2.70514599,68.4414473 3.52416632,66.9470429 C4.21744494,66.7322578 4.9163876,66.5333827 5.62325992,66.3629183 C5.62212711,66.3140519 5.61759588,66.216319 5.61646307,66.1685889 C5.85208718,66.1833625 6.07298478,66.1049489 6.29274957,66.0276717 C9.18027768,65.2014877 12.0734698,64.4037144 14.9553339,63.5627568 C15.545527,63.4718425 16.0847437,63.1581881 16.6907961,63.1661431 Z" id="Shape" fill="#A5D56E"></path>
                    <path d="M14.6324836,68.9142018 C14.8454515,68.8426068 15.1218567,68.8664718 15.2623249,69.0608012 C17.1416537,71.0677351 19.2056303,72.8792032 21.3081223,74.6418049 C27.8931364,80.08871 35.3232254,84.5957881 43.4069447,87.4073139 C47.3989609,88.7721653 51.5393748,89.7676773 55.7296324,90.1927018 C56.1884197,90.3233911 56.6755272,90.2074754 57.1297833,90.3620297 C57.775484,90.4324883 58.4336456,90.3381647 59.0770806,90.4586262 C59.896101,90.5461313 60.7230509,90.4927191 61.5454697,90.5177205 C62.3384354,90.4756727 63.1483933,90.582497 63.9288982,90.3938498 C64.5462786,90.3518019 65.1795184,90.4518076 65.7833052,90.2688425 C67.3941585,90.2427047 68.9687619,89.8983666 70.5648886,89.7040372 C70.5614902,89.7619951 70.5535605,89.8756381 70.5467637,89.9347324 C68.0670465,90.6256813 65.5884622,91.3314038 63.1132763,92.0382628 C59.9969209,92.9621797 56.8103314,93.6917672 53.5750312,94.008831 C53.0278848,94.1383839 52.4535511,94.0372417 51.9086703,94.1906596 C51.2051964,94.2054332 50.5005897,94.2213432 49.8027799,94.313394 C48.6892294,94.3281676 47.5734133,94.3247583 46.4598629,94.3156669 C45.6589675,94.1486118 44.8320175,94.273619 44.0288565,94.1429296 C36.6327517,93.56676 29.3941073,91.376861 22.7501872,88.0857621 C15.0108415,84.2537229 8.04633667,78.9613722 1.92917237,72.8792032 C1.78643854,72.770106 1.84534456,72.5496388 2.01413299,72.5110002 C6.21685142,71.3007031 10.4331636,70.1313175 14.6324836,68.9142018 L14.6324836,68.9142018 Z" id="Shape" fill="#579B0A"></path>
                </g>
            </g>
        </g>
    </g>
</svg>