<?xml version="1.0" encoding="UTF-8" standalone="no"?>
<svg width="182px" height="215px" viewBox="0 0 182 215" version="1.1" xmlns="http://www.w3.org/2000/svg" xmlns:xlink="http://www.w3.org/1999/xlink" xmlns:sketch="http://www.bohemiancoding.com/sketch/ns">
    <!-- Generator: Sketch 3.5.2 (25235) - http://www.bohemiancoding.com/sketch -->
    <title>logo</title>
    <desc>Created with Sketch.</desc>
    <defs></defs>
    <g id="Page-1" stroke="none" stroke-width="1" fill="none" fill-rule="evenodd" sketch:type="MSPage">
        <g id="logo" sketch:type="MSArtboardGroup">
            <circle id="Oval-4-Copy-3" stroke="#FFF2F2" stroke-width="6" sketch:type="MSShapeGroup" cx="90" cy="93" r="81"></circle>
            <polygon id="Triangle-1-Copy-3" fill="#FFFFFF" sketch:type="MSShapeGroup" points="91.5 84.75 152.25 206.25 30.75 206.25 "></polygon>
            <rect id="Rectangle-2" stroke="#979797" fill="#FFFFFF" sketch:type="MSShapeGroup" x="-8" y="-7" width="205" height="228"></rect>
            <text id="jus" sketch:type="MSTextLayer" font-family="Roboto Slab" font-size="44" font-weight="normal" sketch:alignment="middle" fill="#D65252">
                <tspan x="60.2880859" y="173">jus</tspan>
            </text>
            <text id="/zhoo/-copy-4" sketch:type="MSTextLayer" font-family="Archer" font-size="16" font-style="italic" font-weight="313" sketch:alignment="middle" fill="#B7B7B7">
                <tspan x="69.392" y="199">/zhoo/</tspan>
            </text>
            <g id="Group-Copy-5" sketch:type="MSLayerGroup" transform="translate(91.417112, 66.137291) rotate(5.000000) translate(-91.417112, -66.137291) translate(29.000000, 12.000000)">
                <g id="Group" sketch:type="MSShapeGroup">
                    <path d="M41.7453445,4.79017185 C46.7855263,3.33824885 51.8322099,1.90198 56.8853952,0.493105926 C56.7722642,0.904027531 56.5238961,1.25755056 56.3457473,1.64238191 C44.4305807,24.2835101 32.5206156,46.9285518 20.6067494,69.56968 C20.4312012,69.8475412 20.2894624,70.1410567 20.2426496,70.469794 C16.7980052,71.4051298 13.3858698,72.4422177 9.93992505,73.3684219 C9.62913984,73.5223544 9.31575393,73.6749825 8.95815589,73.6619373 C7.97508638,73.9880656 6.9582076,74.1967877 5.97253738,74.5137843 C5.70726466,74.6624988 5.39777981,74.6559763 5.10389924,74.6311905 C5.10129853,74.474649 5.13900887,74.329848 5.22093133,74.1967877 C17.4039713,51.0664671 29.5649053,27.9217969 41.7453445,4.79017185 L41.7453445,4.79017185 Z" id="Shape" fill="#D65252"></path>
                    <path d="M58.1987553,0.640515898 C58.2819781,0.64964749 58.4497241,0.663997133 58.5342473,0.670519698 C78.5480341,20.7417572 98.5488173,40.8234308 118.566505,60.8907548 C118.680937,61.4934398 118.155593,61.9395832 117.921528,62.4405162 C117.641952,63.0666825 117.286954,63.665454 116.807123,64.1598644 C112.647282,71.2329341 107.280711,77.6589653 100.71001,82.5952426 C96.0625357,86.1043826 90.8351026,88.8608187 85.2838807,90.6101706 C84.9886998,90.7262723 84.737731,90.9336899 84.4334476,91.0197877 C84.1109591,91.1280623 83.7299547,91.099363 83.4984912,91.3863559 C82.9926526,91.3707017 82.5206232,91.5194162 82.0251873,91.5846419 C82.045993,91.8990295 81.7300064,91.8938115 81.5427551,91.742488 C81.3568041,91.8194542 81.1643513,91.8116271 80.9744993,91.7803188 C72.8654762,93.5661972 64.2896251,93.3157307 56.2300155,91.2532956 C45.3226253,88.5268633 35.3501913,82.7491751 26.8484605,75.4595563 C25.000654,73.8641369 23.2035613,72.2087098 21.4792886,70.4802301 C22.0865551,69.1652809 22.830359,67.9103394 23.4792369,66.6136534 C35.0576111,44.6260863 46.6151796,22.6267785 58.1987553,0.640515898 L58.1987553,0.640515898 Z M60.3365414,12.4659265 C60.1193818,12.7346562 60.0556644,13.0868747 59.9555369,13.4090894 C59.5758328,14.8544899 59.3287651,16.3520708 59.3872811,17.8509563 C59.3898818,18.3284081 59.9126251,18.5058219 60.3040324,18.5632204 C60.9581118,18.6062694 61.6342971,18.4249421 62.1661429,18.0322836 C62.4704264,17.8131254 62.636872,17.4139445 62.5380449,17.0460718 C62.2441643,15.6280661 61.7201207,14.2557184 61.0348328,12.9838182 C60.87879,12.7529194 60.6824362,12.3054714 60.3365414,12.4659265 L60.3365414,12.4659265 Z M67.013872,20.8722085 C66.6588746,21.4840251 66.583454,22.2067253 66.419609,22.8863766 C66.2193541,23.9456412 66.0542089,25.0270825 66.0919192,26.1098283 C66.0789156,26.5142274 66.4482169,26.8038293 66.8214192,26.8520962 C67.6354424,26.9603708 68.5573951,26.777739 69.1204495,26.1398321 C69.4377365,25.7002112 69.2192766,25.1379661 69.1100466,24.6657324 C68.7381447,23.4173134 68.2973238,22.1675899 67.5990324,21.0626674 C67.4989049,20.8526408 67.2102258,20.6360916 67.013872,20.8722085 L67.013872,20.8722085 Z M54.028512,30.7917256 C53.6683132,32.188859 53.4524541,33.6368685 53.4589559,35.082269 C53.4732598,35.8441046 54.4329229,35.9602062 55.0128819,35.8558452 C55.7085726,35.7319164 56.7007446,35.3692618 56.6526314,34.5082832 C56.4263694,33.1294129 55.8893221,31.8157683 55.2807553,30.5660448 C55.0674968,30.2620933 54.929659,29.73507 54.4862375,29.7402881 C54.2170637,30.0285855 54.1286394,30.4238529 54.028512,30.7917256 L54.028512,30.7917256 Z M75.2113193,36.788572 C75.1723086,36.8237938 75.0942872,36.8981511 75.0565769,36.9333729 C74.4766179,38.3239838 74.3192747,39.845046 74.1710341,41.3321909 C74.1918398,41.8057291 74.0240938,42.4305909 74.5000243,42.7384559 C75.1202943,43.0776293 75.8823032,42.9119562 76.5077747,42.6627942 C76.972002,42.4723353 77.47524,42.041846 77.347805,41.4782963 C77.1592533,40.3903325 76.7652453,39.3506356 76.3348273,38.339638 C76.0656535,37.8100057 75.8562961,37.2255839 75.4284788,36.8003126 C75.3751642,36.7977036 75.2659343,36.791181 75.2113193,36.788572 L75.2113193,36.788572 Z M61.458749,37.5099677 C61.0166278,38.0474271 60.9568114,38.792304 60.7877651,39.4484741 C60.5719059,40.5860094 60.3820538,41.744417 60.4158631,42.9041291 C60.4028595,43.3659267 60.8761893,43.6359609 61.2832009,43.6542241 C62.0478105,43.7233633 62.9008444,43.5133367 63.4300895,42.9250013 C63.7291714,42.5793053 63.5822312,42.092722 63.4951073,41.6948455 C63.1648167,40.4542536 62.7200948,39.2332294 62.0907223,38.1113482 C61.9190752,37.8843629 61.7916403,37.5099677 61.458749,37.5099677 L61.458749,37.5099677 Z M86.1616213,40.9330099 C85.9587657,41.1612997 85.90155,41.4769918 85.8092247,41.7600712 C85.4074146,43.2406934 85.149944,44.7774098 85.2097604,46.3154307 C85.2110607,46.7928824 85.7325037,46.9689917 86.123911,47.0263903 C86.8703156,47.0733527 87.6908406,46.8489765 88.2070821,46.2789043 C88.5477755,45.8418924 88.2981071,45.2796473 88.2005803,44.8048046 C87.8442826,43.5824759 87.4021614,42.3718878 86.7480821,41.2747923 C86.6258486,41.0869424 86.4151909,40.7790774 86.1616213,40.9330099 L86.1616213,40.9330099 Z M51.6670646,44.4604131 C51.4030922,44.7904549 51.3250708,45.2222487 51.2119398,45.6188207 C50.9375646,46.7811418 50.7269069,47.9669442 50.6891965,49.1631826 C50.6904969,49.6001945 50.5890691,50.2211427 51.1027099,50.4194287 C51.9427402,50.7194667 52.9856261,50.5094401 53.6280022,49.8780558 C53.9309853,49.606717 53.8880735,49.1605736 53.8165539,48.8018325 C53.503168,47.5168872 53.0311386,46.2697727 52.4173703,45.0996245 C52.2457232,44.8413309 52.0506698,44.3169167 51.6670646,44.4604131 L51.6670646,44.4604131 Z M70.1321268,46.349348 C69.6757017,47.1803228 69.5690725,48.146967 69.4000261,49.0666486 C69.2842944,49.9445859 69.1230502,50.8329593 69.2049726,51.7226372 C69.2127748,52.0683331 69.5495671,52.2887958 69.8538505,52.3618486 C70.6379655,52.4922999 71.5092044,52.3161906 72.1073683,51.7722087 C72.4077507,51.5269602 72.4194539,51.101689 72.3388318,50.753384 C72.0644566,49.5154011 71.6093318,48.3204672 71.0514789,47.1855409 C70.8265172,46.8737622 70.6210609,46.0884454 70.1321268,46.349348 L70.1321268,46.349348 Z M79.7482631,50.2772367 C79.4894922,50.5629251 79.4153718,50.9634106 79.3087426,51.3234562 C78.9862542,52.6227512 78.7677943,53.954659 78.730084,55.2943939 C78.6923736,55.6974884 78.865321,56.1814627 79.2931383,56.2936508 C80.0590483,56.5193316 80.9146829,56.2962599 81.5544583,55.8435938 C82.0186855,55.5279017 81.9705724,54.9134761 81.8418371,54.4373288 C81.4712355,53.105421 80.9992061,51.7865583 80.2905118,50.5942334 C80.1786811,50.4233422 79.9771259,50.1428719 79.7482631,50.2772367 L79.7482631,50.2772367 Z M91.6985393,53.8933469 C91.5099876,54.1659901 91.4319662,54.4986409 91.3305384,54.811724 C90.9976471,56.0836242 90.8077951,57.3920508 90.7440776,58.7056954 C90.7531801,59.0344327 90.6946641,59.4336137 90.9599368,59.6827757 C91.2187077,59.9267196 91.5945108,59.9488964 91.9300027,59.9645505 C92.6451988,59.9280241 93.4436177,59.7023434 93.8623325,59.0761771 C94.0443824,58.4695786 93.7856115,57.8460213 93.630869,57.262904 C93.2654689,56.1788537 92.8701605,55.0856718 92.2498904,54.1164186 C92.1471623,53.9350913 91.8961935,53.6767977 91.6985393,53.8933469 L91.6985393,53.8933469 Z M42.0236208,55.856639 C41.6946306,56.3301772 41.6036057,56.9211216 41.4670683,57.4703216 C41.2317037,58.712218 40.9820353,59.9710731 41.0548553,61.2429733 C41.0483535,61.5325752 41.2902198,61.7386882 41.5242839,61.862617 C42.1770629,62.0882977 42.8909586,61.9252336 43.5008258,61.6499813 C43.9624524,61.4438683 44.3798668,60.9533714 44.2225237,60.418521 C43.9806574,59.2888128 43.5814479,58.1969354 43.1068178,57.1454979 C42.8675522,56.6889183 42.6803009,56.1514589 42.2563847,55.8383758 C42.1965683,55.8409848 42.0821369,55.8514209 42.0236208,55.856639 L42.0236208,55.856639 Z M55.6266501,56.0301392 C55.3470735,56.2479929 55.2547482,56.6132565 55.1481189,56.9367758 C54.8048248,58.3052099 54.5668596,59.708866 54.5395521,61.1216536 C54.5486546,61.4360412 54.5382517,61.8456583 54.8659416,62.0139405 C55.3444728,62.2709296 55.9257321,62.2070084 56.4367722,62.1039519 C56.9608159,61.9578464 57.5589799,61.6721581 57.7241252,61.1059994 C57.7748391,60.6546379 57.6226973,60.2163215 57.5043649,59.7910503 C57.1636715,58.6809097 56.7579603,57.5812052 56.1767009,56.5728166 C56.0297606,56.36279 55.9088275,56.0692746 55.6266501,56.0301392 L55.6266501,56.0301392 Z M65.872159,57.3007349 C65.5561723,57.7351377 65.482052,58.2986874 65.3429139,58.808752 C65.0581358,60.0767386 64.8604816,61.3799471 64.9215984,62.6818512 C64.9215984,62.9218816 65.0828426,63.1462578 65.3039032,63.2362692 C66.0529085,63.5793561 66.9501545,63.3601979 67.615937,62.9244906 C67.9657329,62.711855 68.1828924,62.2826702 68.0710618,61.8756621 C67.7758809,60.4576564 67.2518372,59.0879178 66.5678497,57.814713 C66.4118069,57.5877278 66.2141527,57.1350617 65.872159,57.3007349 L65.872159,57.3007349 Z M102.191116,60.71595 C101.824415,61.2573229 101.747694,61.9408878 101.58775,62.564445 C101.348485,63.7254616 101.18334,64.9112639 101.239255,66.0996753 C101.241856,66.5758226 101.764599,66.7545408 102.156006,66.8119394 C102.810086,66.8536838 103.488872,66.673661 104.018117,66.2810026 C104.325001,66.0618444 104.488846,65.6626634 104.388718,65.2947908 C104.098739,63.8754806 103.569494,62.5057419 102.885506,61.2325372 C102.730764,61.0016384 102.53571,60.5528859 102.191116,60.71595 L102.191116,60.71595 Z M76.6352097,61.9800231 C76.4609619,62.1222151 76.4037462,62.3518094 76.3257248,62.5513999 C75.8862043,63.9328792 75.7028541,65.3730615 75.5988255,66.8132439 C75.589723,67.1132819 75.5780198,67.4354966 75.7093558,67.7159669 C76.0526499,68.1334111 76.6625171,68.168633 77.1592533,68.0877532 C77.683297,67.9846966 78.245051,67.8111964 78.6052497,67.3950567 C78.9004307,67.0441427 78.7833986,66.5523413 78.6897729,66.1479423 C78.3555813,64.9112639 77.9238629,63.6876307 77.2944904,62.569663 C77.1241437,62.3439823 76.9850056,61.9056659 76.6352097,61.9800231 L76.6352097,61.9800231 Z M47.4292028,66.8484658 C47.1379229,67.2946092 47.0429969,67.8333731 46.9090602,68.3434377 C46.6333846,69.6596914 46.3837162,71.0072533 46.4916458,72.3574243 C46.5540629,72.7696504 47.0260923,72.9105378 47.3797892,72.9588048 C48.1300949,72.9888086 48.9740263,72.7957407 49.4863668,72.2061008 C49.8036537,71.7964837 49.5734906,71.2629379 49.4915682,70.8141854 C49.1612776,69.6179469 48.7126546,68.4451897 48.1066885,67.3611394 C47.9532465,67.123718 47.780299,66.7232325 47.4292028,66.8484658 L47.4292028,66.8484658 Z M59.4601011,67.6677 C59.211733,67.8972943 59.1220084,68.2351631 59.025782,68.5456372 C58.6889897,69.7953607 58.4887348,71.0803061 58.4016109,72.3704694 C58.4016109,72.7566053 58.3274906,73.1975307 58.5654558,73.5327905 C58.9503613,73.8810955 59.5173168,73.879791 60.0023497,73.8041293 C60.5901109,73.6945502 61.2350877,73.4597378 61.5380708,72.9027108 C61.6759085,72.5400561 61.53547,72.1500067 61.4548479,71.7912657 C61.1076528,70.5519783 60.6759344,69.325736 60.0309576,68.2064638 C59.8892187,67.9912192 59.7396777,67.7133579 59.4601011,67.6677 L59.4601011,67.6677 Z M34.5348678,68.575641 C34.2032769,69.1287546 34.0953473,69.7823156 33.9458063,70.4032638 C33.726046,71.6451602 33.4698758,72.9157559 33.6480247,74.1811335 C33.8508803,74.5855326 34.3476165,74.6611943 34.754628,74.6585853 C35.4152091,74.6259725 36.1291048,74.4342091 36.5790282,73.9150129 C36.9145202,73.5575763 36.7324703,73.027944 36.644046,72.6078908 C36.308554,71.372517 35.85603,70.1580153 35.2279578,69.0413522 C35.0680139,68.8156714 34.8781619,68.3564828 34.5348678,68.575641 L34.5348678,68.575641 Z M89.4099119,69.6623004 C89.1173317,70.0693085 89.0289074,70.576764 88.9001721,71.0503023 C88.5893869,72.3926462 88.3462203,73.7728209 88.4463477,75.1556048 C88.5490759,75.6930641 89.195353,75.8104703 89.6543789,75.7804665 C90.2980553,75.6930641 91.0249546,75.5586993 91.4462701,75.0081948 C91.6985393,74.6977207 91.5984118,74.2659269 91.5255919,73.9084903 C91.1796971,72.5974547 90.7102684,71.3112049 90.0405848,70.1306206 C89.9001463,69.9192895 89.7258985,69.5605484 89.4099119,69.6623004 L89.4099119,69.6623004 Z M67.9995422,76.6557947 C67.7810823,76.9219154 67.7173648,77.2767429 67.615937,77.5989577 C67.2362329,79.0443581 66.9891652,80.5419391 67.0489816,82.0408245 C67.0437802,82.4687048 67.4885021,82.6604682 67.842199,82.7322164 C68.5365894,82.8326639 69.2634887,82.6356825 69.8265431,82.2208473 C70.1295261,82.0003846 70.2959717,81.6025082 70.1971447,81.2320265 C69.9045644,79.8153253 69.3779201,78.4442821 68.6913318,77.1723819 C68.5404905,76.9427876 68.3428363,76.4914261 67.9995422,76.6557947 L67.9995422,76.6557947 Z M80.342526,77.2258669 C79.9771259,77.7685444 79.8991045,78.4495002 79.7391606,79.0743619 C79.5011954,80.2353785 79.3334494,81.4211808 79.3906651,82.6082877 C79.3841633,83.0374725 79.8288852,83.2292359 80.1851829,83.3009841 C80.8769725,83.4027361 81.6051722,83.2044502 82.1695269,82.789615 C82.4738103,82.5678478 82.6389556,82.1712758 82.5401285,81.8007941 C82.2579511,80.4154013 81.7404093,79.0808845 81.0876303,77.8298565 C80.9172836,77.5806945 80.7261312,77.0628028 80.342526,77.2258669 L80.342526,77.2258669 Z M54.0961305,79.3613548 C53.7801439,79.7970621 53.7164264,80.3632208 53.5694862,80.8719809 C53.2821074,82.138663 53.0870539,83.440567 53.1455699,84.7437755 C53.1403685,85.1729603 53.5850904,85.3647237 53.9400878,85.4351674 C54.6318774,85.538224 55.360077,85.339938 55.9231314,84.9237983 C56.2300155,84.7046401 56.3938605,84.3067637 56.2950334,83.9375865 C56.0037535,82.5182763 55.4758088,81.1498421 54.7905209,79.8766374 C54.6370788,79.6470431 54.4394247,79.1982906 54.0961305,79.3613548 L54.0961305,79.3613548 Z" id="Shape" fill="#F66F6F"></path>
                    <path d="M120.18935,62.5683585 C120.275174,62.5709675 120.44552,62.5774901 120.532644,62.5800991 C121.934429,63.9798416 123.328411,65.3913247 124.732796,66.7897627 C124.96686,66.9828306 124.735396,67.271128 124.646972,67.4759365 C122.241313,72.0521683 119.384429,76.4092418 116.093227,80.384093 C115.890372,80.7845785 115.485961,81.0141728 115.242794,81.38335 C114.941111,81.9182003 114.363753,82.2247609 114.081576,82.7739609 C112.89305,84.0002031 111.670715,85.195137 110.470486,86.4109432 C109.982852,86.8727408 109.561536,87.4115047 108.984178,87.7611142 C108.29629,88.5099047 107.441955,89.0604092 106.711155,89.7544101 C104.232676,91.6746533 101.685277,93.5309753 98.9324225,95.0416014 C98.2770428,95.5086171 97.4877264,95.7395159 96.8323467,96.2091406 C96.2289813,96.5978855 95.5189867,96.7557315 94.9065188,97.1209952 C93.0040972,98.0302408 91.0171525,98.7646816 89.0367095,99.4795547 C88.1966793,99.6282692 87.4372711,100.100503 86.5738343,100.137029 C86.5686329,100.512729 86.2019324,100.374451 85.9821721,100.277917 C85.9990768,100.733192 85.4191178,100.433154 85.1421418,100.540124 C84.47896,100.780154 83.7962729,100.789286 83.1122854,100.947132 C76.6027007,102.344265 69.8603523,102.606472 63.2649442,101.71549 C56.9972259,100.914519 50.8777482,99.1051595 45.0911618,96.5770132 C35.1967492,92.2016765 26.2828055,85.7717318 18.5924972,78.182075 C18.3389276,77.9133453 17.9735275,77.6967961 17.8356897,77.3471867 C18.693925,75.682628 19.5716656,74.0258965 20.4533073,72.374383 C20.5079223,72.376992 20.6145515,72.3809055 20.6691665,72.3822101 C28.4413973,80.1257994 37.5165852,86.6940225 47.7061787,90.8280243 C53.3107152,93.1109221 59.2364398,94.6150256 65.2635921,95.1563986 C66.9111438,95.3377259 68.5703987,95.2751092 70.2231518,95.2959815 C71.0202703,95.2777183 71.8212899,95.3207672 72.6145074,95.2672822 C73.3622124,95.0011615 74.1879387,95.3155491 74.9343434,95.0311653 C75.3660617,94.9711577 75.8263879,95.0911729 76.242502,94.9176727 C76.5909975,94.80418 76.9641999,94.9372404 77.3217979,94.8889734 C82.5661356,94.1897544 87.7051445,92.6921734 92.4917568,90.4262343 C100.405726,86.7201128 107.265107,80.9632968 112.700597,74.1393891 C115.553579,70.5311061 118.086674,66.6619204 120.18935,62.5683585 L120.18935,62.5683585 Z" id="Shape" fill="#A5D56E"></path>
                    <path d="M19.1594526,72.5087478 L19.1854597,72.6365901 C18.4858679,73.9489302 17.7979793,75.2704019 17.1022886,76.585351 C16.9007334,77.0027952 16.6094535,77.3850175 16.5327325,77.8559467 C16.0672048,77.887255 15.6484901,78.1103268 15.1946656,78.1964246 C11.2129741,79.3222194 7.23128247,80.4532322 3.24959088,81.584245 C2.60201335,81.7433956 1.97654187,82.0316929 1.29905614,82.0382155 C2.21710782,80.3097357 3.10525131,78.5642973 4.04540906,76.8488627 C4.84122723,76.6023097 5.64354719,76.3740199 6.45496964,76.178343 C6.45366928,76.1222489 6.44846786,76.0100608 6.4471675,75.9552712 C6.71764165,75.9722299 6.97121117,75.8822185 7.22348033,75.7935116 C10.538089,74.8451307 13.8591995,73.9293625 17.1673064,72.9640229 C17.8447922,72.8596618 18.4637619,72.4996162 19.1594526,72.5087478 Z" id="Shape" fill="#A5D56E"></path>
                    <path d="M16.7967048,79.1069747 C17.0411719,79.0247904 17.3584588,79.0521852 17.5197031,79.2752569 C19.6769945,81.5790269 22.046244,83.6584207 24.4597057,85.6817204 C32.018678,91.9342514 40.5477162,97.1079501 49.8270602,100.335315 C54.4095165,101.902035 59.1623194,103.044789 63.9723381,103.532677 C64.4989825,103.682696 65.0581358,103.549635 65.5795787,103.727049 C66.3207819,103.807929 67.0762891,103.699654 67.8148916,103.837933 C68.7550493,103.93838 69.7043095,103.877068 70.6483684,103.905767 C71.5586179,103.8575 72.4883728,103.980125 73.3843184,103.763576 C74.0930127,103.715309 74.819912,103.830106 75.513002,103.620079 C77.3621089,103.590075 79.1696045,103.194808 81.0018068,102.971736 C80.9979057,103.038266 80.9888032,103.168718 80.9810011,103.236552 C78.1345207,104.029696 75.2893407,104.839799 72.4480617,105.651206 C68.870781,106.711775 65.2128782,107.549272 61.4990601,107.913231 C60.8709879,108.061946 60.2117071,107.945844 59.5862357,108.121954 C58.7787143,108.138912 57.9698925,108.157175 57.1688729,108.262841 C55.8906225,108.2798 54.6097714,108.275886 53.3315209,108.26545 C52.4121689,108.073687 51.4629086,108.217183 50.5409559,108.067164 C42.0509283,107.405776 33.7416503,104.891979 26.1150595,101.11411 C17.2310239,96.7152916 9.23643218,90.6401744 2.21450711,83.6584207 C2.05066219,83.5331874 2.11828073,83.2801119 2.31203385,83.2357585 C7.13635644,81.8464521 11.9762833,80.5041082 16.7967048,79.1069747 L16.7967048,79.1069747 Z" id="Shape" fill="#579B0A"></path>
                </g>
            </g>
        </g>
    </g>
</svg>